<?xml version="1.0" standalone="no"?>
<!DOCTYPE svg PUBLIC "-//W3C//DTD SVG 20010904//EN"
 "http://www.w3.org/TR/2001/REC-SVG-20010904/DTD/svg10.dtd">
<svg version="1.0" xmlns="http://www.w3.org/2000/svg"
 width="500.000000pt" height="500.000000pt" viewBox="0 0 500.000000 500.000000"
 preserveAspectRatio="xMidYMid meet">
<metadata>
Created by potrace 1.11, written by Peter Selinger 2001-2013
</metadata>
<g transform="translate(0.000000,500.000000) scale(0.100000,-0.100000)"
fill="#000000" stroke="none">
<path d="M0 2500 l0 -2500 2495 0 2495 0 0 2500 0 2500 -2495 0 -2495 0 0
-2500z m2580 1286 c355 -104 750 -218 878 -255 230 -67 268 -83 305 -133 25
-34 24 -109 -2 -176 -12 -29 -142 -255 -291 -503 -149 -249 -269 -453 -268
-454 2 -2 212 -91 468 -198 745 -313 775 -326 816 -361 62 -53 48 -113 -37
-156 -19 -10 -242 -80 -495 -155 -525 -156 -1130 -335 -1253 -371 -153 -44
-294 -25 -471 64 -87 44 -1438 839 -1503 884 -37 26 -59 73 -59 121 1 74 53
164 823 1432 247 406 294 459 394 452 28 -2 340 -88 695 -191z"/>
<path d="M1801 3852 c-40 -43 -1009 -1641 -1036 -1709 -29 -71 -20 -83 128
-171 316 -190 1366 -806 1403 -825 100 -48 136 -7 439 504 132 222 395 665
586 984 190 319 353 601 363 626 22 58 18 87 -14 110 -33 24 -1746 519 -1795
519 -31 0 -45 -7 -74 -38z"/>
<path d="M3020 1969 c-30 -51 -49 -94 -44 -99 20 -19 751 -362 772 -362 32 -1
632 155 632 163 0 4 -62 33 -137 65 -76 31 -242 102 -370 155 -127 54 -249
101 -270 105 -27 4 -61 -1 -107 -15 -133 -41 -156 -39 -290 24 -66 30 -123 55
-127 55 -4 0 -31 -41 -59 -91z"/>
<path d="M3900 1499 c-799 -213 -1167 -309 -1278 -335 -79 -17 -112 -30 -131
-48 l-24 -25 27 -7 c15 -4 51 -4 79 -1 29 3 426 117 882 252 989 293 965 286
965 291 0 10 -66 -6 -520 -127z"/>
</g>
</svg>
