<?xml version="1.0" encoding="utf-8"?>
<!-- Generator: Adobe Illustrator 23.0.3, SVG Export Plug-In . SVG Version: 6.00 Build 0)  -->
<svg version="1.1" id="Layer_1" xmlns="http://www.w3.org/2000/svg" xmlns:xlink="http://www.w3.org/1999/xlink" x="0px" y="0px"
	 width="30" height="30" viewBox="0 0 15 15" style="enable-background:new 0 0 9 9;" xml:space="preserve">
<style type="text/css">
	.st0{stroke:#000000;stroke-miterlimit:10;}
</style>
<g>
	<path d="M3,5H2V4h1C2.83,4.17,2.67,4.33,2.5,4.5C2.67,4.67,2.83,4.83,3,5z"/>
	<path d="M3,4H2v1h1C2.83,4.83,2.67,4.67,2.5,4.5C2.67,4.33,2.83,4.17,3,4L3,4z"/>
</g>
<path class="st0" d="M4.5,2.5"/>
<g>
	<path d="M5,6v1H4V6c0.17,0.17,0.33,0.33,0.5,0.5C4.67,6.33,4.83,6.17,5,6z"/>
	<path d="M5,6C4.83,6.17,4.67,6.33,4.5,6.5C4.33,6.33,4.17,6.17,4,6v1h1V6L5,6z"/>
</g>
<g>
	<path d="M5,3V2H4v1c0.17-0.17,0.33-0.33,0.5-0.5C4.67,2.67,4.83,2.83,5,3z"/>
	<path d="M5,2H4v1c0.17-0.17,0.33-0.33,0.5-0.5C4.67,2.67,4.83,2.83,5,3V2L5,2z"/>
</g>
<g>
	<path d="M6.01,5.01l1-0.02l-0.02-1l-1,0.02C6.16,4.17,6.33,4.34,6.5,4.5C6.34,4.67,6.17,4.84,6.01,5.01z"/>
	<path d="M6.99,3.99l-1,0.02C6.16,4.17,6.33,4.34,6.5,4.5C6.34,4.67,6.17,4.84,6.01,5.01l1-0.02L6.99,3.99L6.99,3.99z"/>
</g>
</svg>
